<svg xmlns="http://www.w3.org/2000/svg" viewBox="0 0 139.56 78.55"><defs><style>.cls-1{fill:#ffde17;}.cls-2{fill:#231f20;}</style></defs><g id="Layer_2" data-name="Layer 2"><g id="Layer_1-2" data-name="Layer 1"><path class="cls-1" d="M0,0V16H81.56V0Z"/><path class="cls-2" d="M139.56,1V45a39.31,39.31,0,0,1-2.79,15.48A27,27,0,0,1,127.4,71q-11,7.59-28,7.58T71.49,71h0a3,3,0,0,0-3.35,0q-11,7.59-28,7.58T12.21,71a27.56,27.56,0,0,1-9.56-10.5Q.33,56,0,47.83A2.81,2.81,0,0,1,2.87,45H21.6l.08.08c.15,12.15,6.3,17.55,18.44,17.55,12.29,0,18.44-5.65,18.44-18V35h23V45q0,19.34,18,19.33t18-19.33V0h21A1,1,0,0,1,139.56,1Z"/></g></g></svg>